<?xml version="1.0" encoding="utf-8"?>
<!-- Svg Vector Icons : http://www.onlinewebfonts.com/icon -->
<!DOCTYPE svg PUBLIC "-//W3C//DTD SVG 1.1//EN" "http://www.w3.org/Graphics/SVG/1.1/DTD/svg11.dtd">
<svg version="1.1" xmlns="http://www.w3.org/2000/svg" xmlns:xlink="http://www.w3.org/1999/xlink" x="0px" y="0px" viewBox="0 0 1000 1000" enable-background="new 0 0 1000 1000" xml:space="preserve">
<metadata> Svg Vector Icons : http://www.onlinewebfonts.com/icon </metadata>
<g><path d="M500,10C229.4,10,10,229.4,10,500c0,270.6,219.3,490,490,490c270.6,0,490-219.3,490-490C989.9,229.4,770.6,10,500,10z M500,957.6C247.3,957,43,752.7,42.5,500C43,247.3,247.3,43,500,42.5C752.7,43,957,247.4,957.5,500C957,752.7,752.7,957,500,957.6z M733.4,306.6l-9.4-8.5l-8.5,9.4L452,598.5L303.2,455l-9.1-8.8l-8.8,9.1l-54.1,56.1l-8.8,9.2l9.2,8.8l216.2,208.4l9.4,9.1l8.8-9.7l326.2-360.4l8.5-9.4l-9.4-8.5L733.4,306.6z" fill="#06d6a0"/></g>
</svg>