<svg xmlns="http://www.w3.org/2000/svg" width="84" height="84" viewBox="542 860 1 64" fill="none">
    <rect width="603" height="228" transform="translate(242 728)" fill="white"/>
    <path xmlns="http://www.w3.org/2000/svg" fill-rule="evenodd" clip-rule="evenodd" d="M550.92 905.485L549.522 905.793V907.652C549.522 910.839 547.518 913.55 544.722 914.555V919.56C544.722 920.908 543.647 922 542.322 922C540.996 922 539.921 920.908 539.921 919.56V914.555C537.125 913.55 535.121 910.839 535.121 907.652V905.929C534.913 905.887 534.704 905.843 534.496 905.797L533.08 905.485C526.17 903.963 520.702 898.597 518.962 891.63C517.679 886.496 517.679 881.118 518.962 875.984C520.702 869.018 526.17 863.651 533.08 862.129L534.496 861.817C539.441 860.728 544.559 860.728 549.504 861.817L550.92 862.129C557.83 863.651 563.298 869.018 565.038 875.985C566.321 881.118 566.321 886.496 565.038 891.63C563.298 898.597 557.83 903.963 550.92 905.485ZM544.722 906.508C544.443 906.53 544.165 906.548 543.886 906.563C542.565 906.635 541.242 906.631 539.921 906.552V907.652C539.921 908.999 540.996 910.092 542.322 910.092C543.647 910.092 544.722 908.999 544.722 907.652V906.508ZM544.801 874.116C545.629 874.789 545.764 876.018 545.101 876.859L541.196 881.821H546.802C547.54 881.821 548.213 882.251 548.533 882.928C548.852 883.604 548.762 884.407 548.301 884.993L541.901 893.126C541.238 893.968 540.03 894.104 539.202 893.431C538.374 892.757 538.24 891.529 538.902 890.687L542.807 885.725H537.201C536.463 885.725 535.79 885.295 535.471 884.619C535.151 883.943 535.241 883.14 535.702 882.554L542.102 874.421C542.765 873.579 543.973 873.442 544.801 874.116Z" fill="#FCA311"/>
    <path xmlns="http://www.w3.org/2000/svg" fill-rule="evenodd" clip-rule="evenodd" d="M550.92 905.485L549.522 905.793V907.652C549.522 910.839 547.518 913.55 544.722 914.555V919.56C544.722 920.908 543.647 922 542.322 922C540.996 922 539.921 920.908 539.921 919.56V914.555C537.125 913.55 535.121 910.839 535.121 907.652V905.929C534.913 905.887 534.704 905.843 534.496 905.797L533.08 905.485C526.17 903.963 520.702 898.597 518.962 891.63C517.679 886.496 517.679 881.118 518.962 875.984C520.702 869.018 526.17 863.651 533.08 862.129L534.496 861.817C539.441 860.728 544.559 860.728 549.504 861.817L550.92 862.129C557.83 863.651 563.298 869.018 565.038 875.985C566.321 881.118 566.321 886.496 565.038 891.63C563.298 898.597 557.83 903.963 550.92 905.485ZM544.722 906.508C544.443 906.53 544.165 906.548 543.886 906.563C542.565 906.635 541.242 906.631 539.921 906.552V907.652C539.921 908.999 540.996 910.092 542.322 910.092C543.647 910.092 544.722 908.999 544.722 907.652V906.508ZM544.801 874.116C545.629 874.789 545.764 876.018 545.101 876.859L541.196 881.821H546.802C547.54 881.821 548.213 882.251 548.533 882.928C548.852 883.604 548.762 884.407 548.301 884.993L541.901 893.126C541.238 893.968 540.03 894.104 539.202 893.431C538.374 892.757 538.24 891.529 538.902 890.687L542.807 885.725H537.201C536.463 885.725 535.79 885.295 535.471 884.619C535.151 883.943 535.241 883.14 535.702 882.554L542.102 874.421C542.765 873.579 543.973 873.442 544.801 874.116Z" fill="url(#paint8_linear_0_1)"/>
    <defs>
        <linearGradient id="paint0_linear_0_1" x1="760" y1="866.778" x2="789.245" y2="924.311" gradientUnits="userSpaceOnUse">
        <stop stop-color="#09C6F9"/>
        <stop offset="1" stop-color="#045DE9"/>
        </linearGradient>
        <linearGradient id="paint1_linear_0_1" x1="760" y1="866.778" x2="789.245" y2="924.311" gradientUnits="userSpaceOnUse">
        <stop stop-color="#09C6F9"/>
        <stop offset="1" stop-color="#045DE9"/>
        </linearGradient>
        <linearGradient id="paint2_linear_0_1" x1="760" y1="866.778" x2="789.245" y2="924.311" gradientUnits="userSpaceOnUse">
        <stop stop-color="#09C6F9"/>
        <stop offset="1" stop-color="#045DE9"/>
        </linearGradient>
        <linearGradient id="paint3_linear_0_1" x1="760" y1="866.778" x2="789.245" y2="924.311" gradientUnits="userSpaceOnUse">
        <stop stop-color="#09C6F9"/>
        <stop offset="1" stop-color="#045DE9"/>
        </linearGradient>
        <linearGradient id="paint4_linear_0_1" x1="639" y1="866.778" x2="668.245" y2="924.311" gradientUnits="userSpaceOnUse">
        <stop stop-color="#09C6F9"/>
        <stop offset="1" stop-color="#045DE9"/>
        </linearGradient>
        <linearGradient id="paint5_linear_0_1" x1="639" y1="866.778" x2="668.245" y2="924.311" gradientUnits="userSpaceOnUse">
        <stop stop-color="#09C6F9"/>
        <stop offset="1" stop-color="#045DE9"/>
        </linearGradient>
        <linearGradient id="paint6_linear_0_1" x1="639" y1="866.778" x2="668.245" y2="924.311" gradientUnits="userSpaceOnUse">
        <stop stop-color="#09C6F9"/>
        <stop offset="1" stop-color="#045DE9"/>
        </linearGradient>
        <linearGradient id="paint7_linear_0_1" x1="639" y1="866.778" x2="668.245" y2="924.311" gradientUnits="userSpaceOnUse">
        <stop stop-color="#09C6F9"/>
        <stop offset="1" stop-color="#045DE9"/>
        </linearGradient>
        <linearGradient id="paint8_linear_0_1" x1="518" y1="860.718" x2="559.936" y2="925.635" gradientUnits="userSpaceOnUse">
        <stop stop-color="#09C6F9"/>
        <stop offset="1" stop-color="#045DE9"/>
        </linearGradient>
        <linearGradient id="paint9_linear_0_1" x1="760" y1="768.778" x2="789.245" y2="826.311" gradientUnits="userSpaceOnUse">
        <stop stop-color="#09C6F9"/>
        <stop offset="1" stop-color="#045DE9"/>
        </linearGradient>
        <linearGradient id="paint10_linear_0_1" x1="633" y1="770.792" x2="655.593" y2="830.053" gradientUnits="userSpaceOnUse">
        <stop stop-color="#09C6F9"/>
        <stop offset="1" stop-color="#045DE9"/>
        </linearGradient>
        <linearGradient id="paint11_linear_0_1" x1="512" y1="770.792" x2="534.593" y2="830.053" gradientUnits="userSpaceOnUse">
        <stop stop-color="#09C6F9"/>
        <stop offset="1" stop-color="#045DE9"/>
        </linearGradient>
        <linearGradient id="paint12_linear_0_1" x1="351" y1="842.852" x2="370.497" y2="881.207" gradientUnits="userSpaceOnUse">
        <stop stop-color="#09C6F9"/>
        <stop offset="1" stop-color="#045DE9"/>
        </linearGradient>
        <linearGradient id="paint13_linear_0_1" x1="391" y1="842.852" x2="410.497" y2="881.207" gradientUnits="userSpaceOnUse">
        <stop stop-color="#09C6F9"/>
        <stop offset="1" stop-color="#045DE9"/>
        </linearGradient>
        <linearGradient id="paint14_linear_0_1" x1="311" y1="842.852" x2="330.497" y2="881.207" gradientUnits="userSpaceOnUse">
        <stop stop-color="#09C6F9"/>
        <stop offset="1" stop-color="#045DE9"/>
        </linearGradient>
        <linearGradient id="paint15_linear_0_1" x1="271" y1="842.852" x2="290.497" y2="881.207" gradientUnits="userSpaceOnUse">
        <stop stop-color="#09C6F9"/>
        <stop offset="1" stop-color="#045DE9"/>
        </linearGradient>
        <clipPath id="clip0_0_1">
        <rect width="544" height="420" fill="white" transform="translate(0 39)"/>
        </clipPath>
    </defs>
</svg>